{
    "asset": {
        "generator": "COLLADA2GLTF",
        "version": "2.0"
    },
    "scenes": [
        {
            "nodes": [
                0
            ]
        }
    ],
    "scene": 0,
    "nodes": [
        {
            "children": [
                1
            ],
            "matrix": [
                1.0,
                0.0,
                0.0,
                0.0,
                0.0,
                0.0,
                -1.0,
                0.0,
                0.0,
                1.0,
                0.0,
                0.0,
                0.0,
                0.0,
                0.0,
                1.0
            ],
            "name": "Z_UP"
        },
        {
            "mesh": 0,
            "name": "Group31"
        }
    ],
    "meshes": [
        {
            "primitives": [
                {
                    "attributes": {
                        "NORMAL": 1,
                        "POSITION": 2,
                        "TEXCOORD_0": 3
                    },
                    "indices": 0,
                    "mode": 4,
                    "material": 0
                },
                {
                    "attributes": {
                        "NORMAL": 5,
                        "POSITION": 6
                    },
                    "indices": 4,
                    "mode": 4,
                    "material": 1
                },
                {
                    "attributes": {
                        "NORMAL": 8,
                        "POSITION": 9
                    },
                    "indices": 7,
                    "mode": 4,
                    "material": 2
                },
                {
                    "attributes": {
                        "NORMAL": 11,
                        "POSITION": 12
                    },
                    "indices": 10,
                    "mode": 4,
                    "material": 3
                },
                {
                    "attributes": {
                        "NORMAL": 14,
                        "POSITION": 15
                    },
                    "indices": 13,
                    "mode": 4,
                    "material": 4
                },
                {
                    "attributes": {
                        "NORMAL": 17,
                        "POSITION": 18
                    },
                    "indices": 16,
                    "mode": 4,
                    "material": 5
                },
                {
                    "attributes": {
                        "NORMAL": 20,
                        "POSITION": 21
                    },
                    "indices": 19,
                    "mode": 4,
                    "material": 6
                },
                {
                    "attributes": {
                        "NORMAL": 23,
                        "POSITION": 24
                    },
                    "indices": 22,
                    "mode": 4,
                    "material": 7
                },
                {
                    "attributes": {
                        "NORMAL": 26,
                        "POSITION": 27
                    },
                    "indices": 25,
                    "mode": 4,
                    "material": 8
                }
            ],
            "name": "Group31"
        }
    ],
    "accessors": [
        {
            "bufferView": 0,
            "byteOffset": 0,
            "componentType": 5123,
            "count": 14046,
            "max": [
                5631
            ],
            "min": [
                0
            ],
            "type": "SCALAR"
        },
        {
            "bufferView": 1,
            "byteOffset": 0,
            "componentType": 5126,
            "count": 5632,
            "max": [
                1.0,
                1.0,
                1.0
            ],
            "min": [
                -1.0,
                -1.0,
                -1.0
            ],
            "type": "VEC3"
        },
        {
            "bufferView": 1,
            "byteOffset": 67584,
            "componentType": 5126,
            "count": 5632,
            "max": [
                7.842000484466553,
                72.67949676513672,
                30.241498947143556
            ],
            "min": [
                -7.882699966430664,
                -72.67949676513672,
                -1.7171999216079713
            ],
            "type": "VEC3"
        },
        {
            "bufferView": 2,
            "byteOffset": 0,
            "componentType": 5126,
            "count": 5632,
            "max": [
                0.9643999934196472,
                1.0108000040054322
            ],
            "min": [
                -0.4916999936103821,
                0.16480004787445069
            ],
            "type": "VEC2"
        },
        {
            "bufferView": 0,
            "byteOffset": 28092,
            "componentType": 5123,
            "count": 90,
            "max": [
                31
            ],
            "min": [
                0
            ],
            "type": "SCALAR"
        },
        {
            "bufferView": 1,
            "byteOffset": 135168,
            "componentType": 5126,
            "count": 32,
            "max": [
                0.0,
                0.0,
                -1.0
            ],
            "min": [
                0.0,
                0.0,
                -1.0
            ],
            "type": "VEC3"
        },
        {
            "bufferView": 1,
            "byteOffset": 135552,
            "componentType": 5126,
            "count": 32,
            "max": [
                7.2042999267578129,
                66.21129608154297,
                -1.7171999216079713
            ],
            "min": [
                -7.2042999267578129,
                -71.1792984008789,
                -1.7171999216079713
            ],
            "type": "VEC3"
        },
        {
            "bufferView": 0,
            "byteOffset": 28272,
            "componentType": 5123,
            "count": 591,
            "max": [
                294
            ],
            "min": [
                0
            ],
            "type": "SCALAR"
        },
        {
            "bufferView": 1,
            "byteOffset": 135936,
            "componentType": 5126,
            "count": 295,
            "max": [
                1.0,
                1.0,
                1.0
            ],
            "min": [
                -0.5099999904632568,
                -1.0,
                -1.0
            ],
            "type": "VEC3"
        },
        {
            "bufferView": 1,
            "byteOffset": 139476,
            "componentType": 5126,
            "count": 295,
            "max": [
                7.791699886322022,
                41.689300537109378,
                28.125699996948247
            ],
            "min": [
                -7.832399845123291,
                -42.25619888305664,
                7.401199817657471
            ],
            "type": "VEC3"
        },
        {
            "bufferView": 0,
            "byteOffset": 29454,
            "componentType": 5123,
            "count": 4221,
            "max": [
                2445
            ],
            "min": [
                0
            ],
            "type": "SCALAR"
        },
        {
            "bufferView": 1,
            "byteOffset": 143016,
            "componentType": 5126,
            "count": 2446,
            "max": [
                1.0,
                1.0,
                1.0
            ],
            "min": [
                -1.0,
                -1.0,
                -1.0
            ],
            "type": "VEC3"
        },
        {
            "bufferView": 1,
            "byteOffset": 172368,
            "componentType": 5126,
            "count": 2446,
            "max": [
                7.826000213623047,
                52.14019775390625,
                28.125699996948247
            ],
            "min": [
                -7.693199634552002,
                -72.58179473876953,
                2.7732999324798586
            ],
            "type": "VEC3"
        },
        {
            "bufferView": 0,
            "byteOffset": 37896,
            "componentType": 5123,
            "count": 3321,
            "max": [
                2100
            ],
            "min": [
                0
            ],
            "type": "SCALAR"
        },
        {
            "bufferView": 1,
            "byteOffset": 201720,
            "componentType": 5126,
            "count": 2101,
            "max": [
                1.0,
                1.0,
                1.0
            ],
            "min": [
                -1.0,
                -1.0,
                -1.0
            ],
            "type": "VEC3"
        },
        {
            "bufferView": 1,
            "byteOffset": 226932,
            "componentType": 5126,
            "count": 2101,
            "max": [
                7.693199634552002,
                24.60229873657227,
                28.124099731445314
            ],
            "min": [
                -7.693199634552002,
                -48.00700378417969,
                8.682799339294434
            ],
            "type": "VEC3"
        },
        {
            "bufferView": 0,
            "byteOffset": 44538,
            "componentType": 5123,
            "count": 726,
            "max": [
                295
            ],
            "min": [
                0
            ],
            "type": "SCALAR"
        },
        {
            "bufferView": 1,
            "byteOffset": 252144,
            "componentType": 5126,
            "count": 296,
            "max": [
                1.0,
                1.0,
                1.0
            ],
            "min": [
                -1.0,
                -1.0,
                -1.0
            ],
            "type": "VEC3"
        },
        {
            "bufferView": 1,
            "byteOffset": 255696,
            "componentType": 5126,
            "count": 296,
            "max": [
                7.826000213623047,
                32.52370071411133,
                23.460399627685548
            ],
            "min": [
                -7.825899600982666,
                -47.97200393676758,
                5.600399971008301
            ],
            "type": "VEC3"
        },
        {
            "bufferView": 0,
            "byteOffset": 45990,
            "componentType": 5123,
            "count": 21,
            "max": [
                8
            ],
            "min": [
                0
            ],
            "type": "SCALAR"
        },
        {
            "bufferView": 1,
            "byteOffset": 259248,
            "componentType": 5126,
            "count": 9,
            "max": [
                0.0,
                0.0,
                1.0
            ],
            "min": [
                0.0,
                0.0,
                1.0
            ],
            "type": "VEC3"
        },
        {
            "bufferView": 1,
            "byteOffset": 259356,
            "componentType": 5126,
            "count": 9,
            "max": [
                7.250399589538574,
                -56.52519989013672,
                2.7732999324798586
            ],
            "min": [
                -7.250399589538574,
                -72.19529724121094,
                2.7732999324798586
            ],
            "type": "VEC3"
        },
        {
            "bufferView": 0,
            "byteOffset": 46032,
            "componentType": 5123,
            "count": 78,
            "max": [
                44
            ],
            "min": [
                0
            ],
            "type": "SCALAR"
        },
        {
            "bufferView": 1,
            "byteOffset": 259464,
            "componentType": 5126,
            "count": 45,
            "max": [
                0.9791999459266664,
                1.0,
                0.0
            ],
            "min": [
                -0.9791999459266664,
                -0.9821999669075012,
                0.0
            ],
            "type": "VEC3"
        },
        {
            "bufferView": 1,
            "byteOffset": 260004,
            "componentType": 5126,
            "count": 45,
            "max": [
                2.102499961853028,
                5.062299728393555,
                30.81679916381836
            ],
            "min": [
                -2.102499961853028,
                2.1726999282836916,
                29.67019844055176
            ],
            "type": "VEC3"
        },
        {
            "bufferView": 0,
            "byteOffset": 46188,
            "componentType": 5123,
            "count": 6,
            "max": [
                3
            ],
            "min": [
                0
            ],
            "type": "SCALAR"
        },
        {
            "bufferView": 1,
            "byteOffset": 260544,
            "componentType": 5126,
            "count": 4,
            "max": [
                0.0,
                0.0,
                -1.0
            ],
            "min": [
                0.0,
                0.0,
                -1.0
            ],
            "type": "VEC3"
        },
        {
            "bufferView": 1,
            "byteOffset": 260592,
            "componentType": 5126,
            "count": 4,
            "max": [
                0.0,
                47.248199462890628,
                7.752699851989746
            ],
            "min": [
                -0.731499969959259,
                46.91339874267578,
                7.752699851989746
            ],
            "type": "VEC3"
        }
    ],
    "materials": [
        {
            "pbrMetallicRoughness": {
                "baseColorTexture": {
                    "index": 0
                },
                "metallicFactor": 0.0
            },
            "emissiveFactor": [
                0.0,
                0.0,
                0.0
            ],
            "occlusionTexture": {
                "index": 0
            },
            "name": "_53_002"
        },
        {
            "pbrMetallicRoughness": {
                "baseColorFactor": [
                    0.8626999855041504,
                    0.8626999855041504,
                    0.8626999855041504,
                    1.0
                ],
                "metallicFactor": 0.0
            },
            "emissiveFactor": [
                0.0,
                0.0,
                0.0
            ],
            "name": "_2___Default"
        },
        {
            "pbrMetallicRoughness": {
                "baseColorFactor": [
                    1.0,
                    1.0,
                    1.0,
                    1.0
                ],
                "metallicFactor": 0.0
            },
            "emissiveFactor": [
                0.0,
                0.0,
                0.0
            ],
            "name": "FrontCol"
        },
        {
            "pbrMetallicRoughness": {
                "baseColorFactor": [
                    0.22749999165534977,
                    0.22749999165534977,
                    0.22749999165534977,
                    1.0
                ],
                "metallicFactor": 0.0
            },
            "emissiveFactor": [
                0.0,
                0.0,
                0.0
            ],
            "name": "Color_00"
        },
        {
            "pbrMetallicRoughness": {
                "baseColorFactor": [
                    0.63919997215271,
                    0.666700005531311,
                    0.6783999800682068,
                    1.0
                ],
                "metallicFactor": 0.0
            },
            "emissiveFactor": [
                0.0,
                0.0,
                0.0
            ],
            "name": "Color_1"
        },
        {
            "pbrMetallicRoughness": {
                "baseColorFactor": [
                    0.8587999939918518,
                    0.8862999677658081,
                    0.8823999762535095,
                    1.0
                ],
                "metallicFactor": 0.0
            },
            "emissiveFactor": [
                0.0,
                0.0,
                0.0
            ],
            "name": "_53_001"
        },
        {
            "pbrMetallicRoughness": {
                "baseColorFactor": [
                    0.26269999146461489,
                    0.3921999931335449,
                    0.3921999931335449,
                    1.0
                ],
                "metallicFactor": 0.0
            },
            "emissiveFactor": [
                0.0,
                0.0,
                0.0
            ],
            "name": "Color_01"
        },
        {
            "pbrMetallicRoughness": {
                "baseColorFactor": [
                    0.6157000064849854,
                    0.6078000068664551,
                    0.6000000238418579,
                    1.0
                ],
                "metallicFactor": 0.0
            },
            "emissiveFactor": [
                0.0,
                0.0,
                0.0
            ],
            "name": "Fencing_"
        },
        {
            "pbrMetallicRoughness": {
                "baseColorFactor": [
                    0.8039000034332275,
                    0.8118000030517578,
                    0.8118000030517578,
                    1.0
                ],
                "metallicFactor": 0.0
            },
            "emissiveFactor": [
                0.0,
                0.0,
                0.0
            ],
            "name": "_53_0001"
        }
    ],
    "textures": [
        {
            "sampler": 0,
            "source": 0
        }
    ],
    "images": [
        {
            "uri": "data:image/jpeg;base64,"
        }
    ],
    "samplers": [
        {
            "magFilter": 9729,
            "minFilter": 9986,
            "wrapS": 10497,
            "wrapT": 10497
        }
    ],
    "bufferViews": [
        {
            "buffer": 0,
            "byteOffset": 305696,
            "byteLength": 46200,
            "target": 34963
        },
        {
            "buffer": 0,
            "byteOffset": 0,
            "byteLength": 260640,
            "byteStride": 12,
            "target": 34962
        },
        {
            "buffer": 0,
            "byteOffset": 260640,
            "byteLength": 45056,
            "byteStride": 8,
            "target": 34962
        }
    ],
    "buffers": [
        {
            "byteLength": 351896,
            "uri": "data:application/octet-stream;base64,"
        }
    ]
}
