{
    "asset": {
        "generator": "COLLADA2GLTF",
        "version": "2.0"
    },
    "scenes": [
        {
            "nodes": [
                0
            ]
        }
    ],
    "scene": 0,
    "nodes": [
        {
            "children": [
                1
            ],
            "matrix": [
                1.0,
                0.0,
                0.0,
                0.0,
                0.0,
                0.0,
                -1.0,
                0.0,
                0.0,
                1.0,
                0.0,
                0.0,
                0.0,
                0.0,
                0.0,
                1.0
            ],
            "name": "Z_UP"
        },
        {
            "children": [
                2
            ],
            "matrix": [
                -2.6135973385521544e-9,
                0.010851340368390084,
                5.228319110983648e-9,
                0.0,
                2.6135960062845244e-9,
                5.228319999162068e-9,
                -0.010851340368390084,
                0.0,
                -0.010851340368390084,
                -2.6135960062845244e-9,
                -2.6135973385521544e-9,
                0.0,
                0.0,
                0.0,
                0.0,
                1.0
            ],
            "name": "arleigh_burke_05"
        },
        {
            "mesh": 0,
            "matrix": [
                1.0,
                0.0,
                0.0,
                0.0,
                0.0,
                1.0,
                0.0,
                0.0,
                0.0,
                0.0,
                1.0,
                0.0,
                611.9290771484375,
                -2807.88818359375,
                -22.26076889038086,
                1.0
            ],
            "name": "_"
        }
    ],
    "meshes": [
        {
            "primitives": [
                {
                    "attributes": {
                        "NORMAL": 1,
                        "POSITION": 2,
                        "TEXCOORD_0": 3
                    },
                    "indices": 0,
                    "mode": 4,
                    "material": 0
                },
                {
                    "attributes": {
                        "NORMAL": 5,
                        "POSITION": 6,
                        "TEXCOORD_0": 7
                    },
                    "indices": 4,
                    "mode": 4,
                    "material": 1
                },
                {
                    "attributes": {
                        "NORMAL": 9,
                        "POSITION": 10,
                        "TEXCOORD_0": 11
                    },
                    "indices": 8,
                    "mode": 4,
                    "material": 2
                },
                {
                    "attributes": {
                        "NORMAL": 13,
                        "POSITION": 14,
                        "TEXCOORD_0": 15
                    },
                    "indices": 12,
                    "mode": 4,
                    "material": 3
                },
                {
                    "attributes": {
                        "NORMAL": 17,
                        "POSITION": 18,
                        "TEXCOORD_0": 19
                    },
                    "indices": 16,
                    "mode": 4,
                    "material": 4
                },
                {
                    "attributes": {
                        "NORMAL": 21,
                        "POSITION": 22,
                        "TEXCOORD_0": 23
                    },
                    "indices": 20,
                    "mode": 4,
                    "material": 5
                },
                {
                    "attributes": {
                        "NORMAL": 25,
                        "POSITION": 26,
                        "TEXCOORD_0": 27
                    },
                    "indices": 24,
                    "mode": 4,
                    "material": 6
                }
            ],
            "name": "_"
        }
    ],
    "accessors": [
        {
            "bufferView": 0,
            "byteOffset": 0,
            "componentType": 5123,
            "count": 2436,
            "max": [
                1702
            ],
            "min": [
                0
            ],
            "type": "SCALAR"
        },
        {
            "bufferView": 1,
            "byteOffset": 0,
            "componentType": 5126,
            "count": 1703,
            "max": [
                1.0,
                0.999921977519989,
                1.0
            ],
            "min": [
                -1.0,
                -1.0,
                -1.0
            ],
            "type": "VEC3"
        },
        {
            "bufferView": 1,
            "byteOffset": 20436,
            "componentType": 5126,
            "count": 1703,
            "max": [
                7853.7783203125,
                2966.773193359375,
                1043.9949951171876
            ],
            "min": [
                -7784.29150390625,
                -1530.1881103515626,
                -1047.80908203125
            ],
            "type": "VEC3"
        },
        {
            "bufferView": 2,
            "byteOffset": 0,
            "componentType": 5126,
            "count": 1703,
            "max": [
                4.328125,
                3.505858898162842
            ],
            "min": [
                -3.119141101837158,
                -2.681641101837158
            ],
            "type": "VEC2"
        },
        {
            "bufferView": 0,
            "byteOffset": 4872,
            "componentType": 5123,
            "count": 2685,
            "max": [
                1893
            ],
            "min": [
                0
            ],
            "type": "SCALAR"
        },
        {
            "bufferView": 1,
            "byteOffset": 40872,
            "componentType": 5126,
            "count": 1894,
            "max": [
                0.9999874830245972,
                1.0,
                1.0
            ],
            "min": [
                -0.9999999403953552,
                -1.0,
                -1.0
            ],
            "type": "VEC3"
        },
        {
            "bufferView": 1,
            "byteOffset": 63600,
            "componentType": 5126,
            "count": 1894,
            "max": [
                7853.7783203125,
                3503.506103515625,
                985.8385009765624
            ],
            "min": [
                -7784.26318359375,
                77.62445068359375,
                -985.83837890625
            ],
            "type": "VEC3"
        },
        {
            "bufferView": 2,
            "byteOffset": 13624,
            "componentType": 5126,
            "count": 1894,
            "max": [
                1.9970699548721312,
                0.997070014476776
            ],
            "min": [
                -0.203003004193306,
                0.004498004913330078
            ],
            "type": "VEC2"
        },
        {
            "bufferView": 0,
            "byteOffset": 10242,
            "componentType": 5123,
            "count": 1443,
            "max": [
                1010
            ],
            "min": [
                0
            ],
            "type": "SCALAR"
        },
        {
            "bufferView": 1,
            "byteOffset": 86328,
            "componentType": 5126,
            "count": 1011,
            "max": [
                1.0,
                1.0,
                1.0
            ],
            "min": [
                -1.0,
                -1.0,
                -1.0
            ],
            "type": "VEC3"
        },
        {
            "bufferView": 1,
            "byteOffset": 98460,
            "componentType": 5126,
            "count": 1011,
            "max": [
                3156.3681640625,
                1446.4481201171876,
                1055.30810546875
            ],
            "min": [
                -1228.49609375,
                -1680.5,
                -1055.30908203125
            ],
            "type": "VEC3"
        },
        {
            "bufferView": 2,
            "byteOffset": 28776,
            "componentType": 5126,
            "count": 1011,
            "max": [
                0.9956049919128418,
                0.8833010196685791
            ],
            "min": [
                0.004298999905586243,
                0.005505025386810303
            ],
            "type": "VEC2"
        },
        {
            "bufferView": 0,
            "byteOffset": 13128,
            "componentType": 5123,
            "count": 438,
            "max": [
                314
            ],
            "min": [
                0
            ],
            "type": "SCALAR"
        },
        {
            "bufferView": 1,
            "byteOffset": 110592,
            "componentType": 5126,
            "count": 315,
            "max": [
                0.9872435331344605,
                0.23662060499191285,
                1.0
            ],
            "min": [
                -0.9872251152992249,
                -1.0,
                -1.0
            ],
            "type": "VEC3"
        },
        {
            "bufferView": 1,
            "byteOffset": 114372,
            "componentType": 5126,
            "count": 315,
            "max": [
                3039.9521484375,
                1950.9371337890626,
                1055.30810546875
            ],
            "min": [
                -3044.694091796875,
                789.6356811523438,
                -1055.30908203125
            ],
            "type": "VEC3"
        },
        {
            "bufferView": 2,
            "byteOffset": 36864,
            "componentType": 5126,
            "count": 315,
            "max": [
                0.9829099774360656,
                1.520508050918579
            ],
            "min": [
                -0.6293950080871582,
                0.006614983081817627
            ],
            "type": "VEC2"
        },
        {
            "bufferView": 0,
            "byteOffset": 14004,
            "componentType": 5123,
            "count": 1791,
            "max": [
                1071
            ],
            "min": [
                0
            ],
            "type": "SCALAR"
        },
        {
            "bufferView": 1,
            "byteOffset": 118152,
            "componentType": 5126,
            "count": 1072,
            "max": [
                0.9963786005973816,
                0.915273129940033,
                0.998020887374878
            ],
            "min": [
                -0.9976916313171388,
                -1.0,
                -0.9980208277702332
            ],
            "type": "VEC3"
        },
        {
            "bufferView": 1,
            "byteOffset": 131016,
            "componentType": 5126,
            "count": 1072,
            "max": [
                602.2617797851563,
                724.7088623046875,
                192.6085968017578
            ],
            "min": [
                -2030.442138671875,
                438.4510192871094,
                -192.60919189453129
            ],
            "type": "VEC3"
        },
        {
            "bufferView": 2,
            "byteOffset": 39384,
            "componentType": 5126,
            "count": 1072,
            "max": [
                0.8647459745407105,
                1.4863280057907105
            ],
            "min": [
                -0.7124019861221314,
                0.4404299855232239
            ],
            "type": "VEC2"
        },
        {
            "bufferView": 0,
            "byteOffset": 17586,
            "componentType": 5123,
            "count": 1092,
            "max": [
                924
            ],
            "min": [
                0
            ],
            "type": "SCALAR"
        },
        {
            "bufferView": 1,
            "byteOffset": 143880,
            "componentType": 5126,
            "count": 925,
            "max": [
                0.9999673366546632,
                0.07593464851379395,
                0.9999824166297912
            ],
            "min": [
                -0.9999969005584716,
                -0.6430038213729858,
                -0.9999809861183168
            ],
            "type": "VEC3"
        },
        {
            "bufferView": 1,
            "byteOffset": 154980,
            "componentType": 5126,
            "count": 925,
            "max": [
                7798.6494140625,
                1973.8199462890626,
                1044.7919921875
            ],
            "min": [
                -5711.3212890625,
                -783.7926025390625,
                -1044.7919921875
            ],
            "type": "VEC3"
        },
        {
            "bufferView": 2,
            "byteOffset": 47960,
            "componentType": 5126,
            "count": 925,
            "max": [
                1.0,
                1.0
            ],
            "min": [
                0.008925999514758587,
                -0.006461977958679199
            ],
            "type": "VEC2"
        },
        {
            "bufferView": 0,
            "byteOffset": 19770,
            "componentType": 5123,
            "count": 90,
            "max": [
                67
            ],
            "min": [
                0
            ],
            "type": "SCALAR"
        },
        {
            "bufferView": 1,
            "byteOffset": 166080,
            "componentType": 5126,
            "count": 68,
            "max": [
                -0.04597330093383789,
                0.027163580060005189,
                0.9989333152770996
            ],
            "min": [
                -0.9999599456787108,
                -0.08853326737880707,
                -0.9989294409751892
            ],
            "type": "VEC3"
        },
        {
            "bufferView": 1,
            "byteOffset": 166896,
            "componentType": 5126,
            "count": 68,
            "max": [
                -5606.2763671875,
                2161.09814453125,
                851.1624755859375
            ],
            "min": [
                -7781.2822265625,
                2073.689208984375,
                -865.1504516601563
            ],
            "type": "VEC3"
        },
        {
            "bufferView": 2,
            "byteOffset": 55360,
            "componentType": 5126,
            "count": 68,
            "max": [
                1.8144530057907105,
                1.0058590173721314
            ],
            "min": [
                1.8144530057907105,
                -0.8173830509185791
            ],
            "type": "VEC2"
        }
    ],
    "materials": [
        {
            "pbrMetallicRoughness": {
                "baseColorTexture": {
                    "index": 0
                },
                "metallicFactor": 0.0
            },
            "emissiveFactor": [
                0.0,
                0.0,
                0.0
            ],
            "occlusionTexture": {
                "index": 0
            },
            "name": "tie"
        },
        {
            "pbrMetallicRoughness": {
                "baseColorTexture": {
                    "index": 1
                },
                "metallicFactor": 0.0
            },
            "emissiveFactor": [
                0.0,
                0.0,
                0.0
            ],
            "occlusionTexture": {
                "index": 1
            },
            "name": "hull"
        },
        {
            "pbrMetallicRoughness": {
                "baseColorTexture": {
                    "index": 2
                },
                "metallicFactor": 0.0
            },
            "emissiveFactor": [
                0.0,
                0.0,
                0.0
            ],
            "occlusionTexture": {
                "index": 2
            },
            "name": "Material__28"
        },
        {
            "pbrMetallicRoughness": {
                "baseColorTexture": {
                    "index": 3
                },
                "metallicFactor": 0.0
            },
            "emissiveFactor": [
                0.0,
                0.0,
                0.0
            ],
            "occlusionTexture": {
                "index": 3
            },
            "name": "Material__29"
        },
        {
            "pbrMetallicRoughness": {
                "baseColorTexture": {
                    "index": 4
                },
                "metallicFactor": 0.0
            },
            "emissiveFactor": [
                0.0,
                0.0,
                0.0
            ],
            "occlusionTexture": {
                "index": 4
            },
            "name": "Material__31"
        },
        {
            "pbrMetallicRoughness": {
                "baseColorTexture": {
                    "index": 5
                },
                "metallicFactor": 0.0
            },
            "emissiveFactor": [
                0.0,
                0.0,
                0.0
            ],
            "occlusionTexture": {
                "index": 5
            },
            "name": "Material__27"
        },
        {
            "pbrMetallicRoughness": {
                "baseColorTexture": {
                    "index": 6
                },
                "metallicFactor": 0.0
            },
            "emissiveFactor": [
                0.0,
                0.0,
                0.0
            ],
            "occlusionTexture": {
                "index": 6
            },
            "name": "Material__33"
        }
    ],
    "textures": [
        {
            "sampler": 0,
            "source": 0
        },
        {
            "sampler": 0,
            "source": 1
        },
        {
            "sampler": 0,
            "source": 2
        },
        {
            "sampler": 0,
            "source": 3
        },
        {
            "sampler": 0,
            "source": 4
        },
        {
            "sampler": 0,
            "source": 5
        },
        {
            "sampler": 0,
            "source": 6
        }
    ],
    "images": [
        {
            "uri": "data:image/png;base64,"
        },
        {
            "uri": "data:image/png;base64,"
        },
        {
            "uri": "data:image/png;base64,"
        },
        {
            "uri": "data:image/png;base64,"
        },
        {
            "uri": "data:image/png;base64,"
        },
        {
            "uri": "data:image/png;base64,"
        },
        {
            "uri": "data:image/png;base64,"
        }
    ],
    "samplers": [
        {
            "magFilter": 9729,
            "minFilter": 9986,
            "wrapS": 10497,
            "wrapT": 10497
        }
    ],
    "bufferViews": [
        {
            "buffer": 0,
            "byteOffset": 223616,
            "byteLength": 19950,
            "target": 34963
        },
        {
            "buffer": 0,
            "byteOffset": 0,
            "byteLength": 167712,
            "byteStride": 12,
            "target": 34962
        },
        {
            "buffer": 0,
            "byteOffset": 167712,
            "byteLength": 55904,
            "byteStride": 8,
            "target": 34962
        }
    ],
    "buffers": [
        {
            "byteLength": 243566,
            "uri": "data:application/octet-stream;base64,"
        }
    ]
}
